<svg xmlns="http://www.w3.org/2000/svg" version="1.1" xmlns:xlink="http://www.w3.org/1999/xlink" xmlns:svgjs="http://svgjs.com/svgjs" width="1920" height="1080" preserveAspectRatio="none" viewBox="0 0 1920 1080"><g mask="url(&quot;#SvgjsMask1024&quot;)" fill="none"><rect width="1920" height="1080" x="0" y="0" fill="rgba(26, 32, 44, 1)"></rect><path d="M37.26 -47.11L102.21 -9.61L102.21 65.39L37.26 102.89L-27.69 65.39L-27.69 -9.61zM102.21 65.39L167.17 102.89L167.17 177.89L102.21 215.39L37.26 177.89L37.26 102.89zM102.21 515.39L167.17 552.89L167.17 627.89L102.21 665.39L37.26 627.89L37.26 552.89zM37.26 627.89L102.21 665.39L102.21 740.39L37.26 777.89L-27.69 740.39L-27.69 665.39zM102.21 740.39L167.17 777.89L167.17 852.89L102.21 890.39L37.26 852.89L37.26 777.89zM37.26 1077.89L102.21 1115.39L102.21 1190.39L37.26 1227.89L-27.69 1190.39L-27.69 1115.39zM167.17 177.89L232.12 215.39L232.12 290.39L167.17 327.89L102.21 290.39L102.21 215.39zM232.12 515.39L297.07 552.89L297.07 627.89L232.12 665.39L167.17 627.89L167.17 552.89zM167.17 1077.89L232.12 1115.39L232.12 1190.39L167.17 1227.89L102.21 1190.39L102.21 1115.39zM297.07 -47.11L362.03 -9.61L362.03 65.39L297.07 102.89L232.12 65.39L232.12 -9.61zM362.03 65.39L426.98 102.89L426.98 177.89L362.03 215.39L297.07 177.89L297.07 102.89zM297.07 177.89L362.03 215.39L362.03 290.39L297.07 327.89L232.12 290.39L232.12 215.39zM362.03 515.39L426.98 552.89L426.98 627.89L362.03 665.39L297.07 627.89L297.07 552.89zM491.94 65.39L556.89 102.89L556.89 177.89L491.94 215.39L426.98 177.89L426.98 102.89zM426.98 177.89L491.94 215.39L491.94 290.39L426.98 327.89L362.03 290.39L362.03 215.39zM491.94 290.39L556.89 327.89L556.89 402.89L491.94 440.39L426.98 402.89L426.98 327.89zM426.98 627.89L491.94 665.39L491.94 740.39L426.98 777.89L362.03 740.39L362.03 665.39zM426.98 852.89L491.94 890.39L491.94 965.39L426.98 1002.89L362.03 965.39L362.03 890.39zM621.84 515.39L686.8 552.89L686.8 627.89L621.84 665.39L556.89 627.89L556.89 552.89zM556.89 627.89L621.84 665.39L621.84 740.39L556.89 777.89L491.94 740.39L491.94 665.39zM621.84 740.39L686.8 777.89L686.8 852.89L621.84 890.39L556.89 852.89L556.89 777.89zM556.89 852.89L621.84 890.39L621.84 965.39L556.89 1002.89L491.94 965.39L491.94 890.39zM621.84 965.39L686.8 1002.89L686.8 1077.89L621.84 1115.39L556.89 1077.89L556.89 1002.89zM686.8 -47.11L751.75 -9.61L751.75 65.39L686.8 102.89L621.84 65.39L621.84 -9.61zM686.8 177.89L751.75 215.39L751.75 290.39L686.8 327.89L621.84 290.39L621.84 215.39zM686.8 627.89L751.75 665.39L751.75 740.39L686.8 777.89L621.84 740.39L621.84 665.39zM751.75 965.39L816.71 1002.89L816.71 1077.89L751.75 1115.39L686.8 1077.89L686.8 1002.89zM816.7 -47.11L881.66 -9.61L881.66 65.39L816.7 102.89L751.75 65.39L751.75 -9.61zM881.66 65.39L946.61 102.89L946.61 177.89L881.66 215.39L816.7 177.89L816.7 102.89zM816.7 177.89L881.66 215.39L881.66 290.39L816.7 327.89L751.75 290.39L751.75 215.39zM881.66 515.39L946.61 552.89L946.61 627.89L881.66 665.39L816.7 627.89L816.7 552.89zM816.7 627.89L881.66 665.39L881.66 740.39L816.7 777.89L751.75 740.39L751.75 665.39zM1011.57 290.39L1076.52 327.89L1076.52 402.89L1011.57 440.39L946.61 402.89L946.61 327.89zM1011.57 740.39L1076.52 777.89L1076.52 852.89L1011.57 890.39L946.61 852.89L946.61 777.89zM1076.52 177.89L1141.47 215.39L1141.47 290.39L1076.52 327.89L1011.57 290.39L1011.57 215.39zM1141.47 515.39L1206.43 552.89L1206.43 627.89L1141.47 665.39L1076.52 627.89L1076.52 552.89zM1141.47 965.39L1206.43 1002.89L1206.43 1077.89L1141.47 1115.39L1076.52 1077.89L1076.52 1002.89zM1271.38 290.39L1336.33 327.89L1336.33 402.89L1271.38 440.39L1206.43 402.89L1206.43 327.89zM1206.43 402.89L1271.38 440.39L1271.38 515.39L1206.43 552.89L1141.47 515.39L1141.47 440.39zM1336.34 -47.11L1401.29 -9.61L1401.29 65.39L1336.34 102.89L1271.38 65.39L1271.38 -9.61zM1336.34 177.89L1401.29 215.39L1401.29 290.39L1336.34 327.89L1271.38 290.39L1271.38 215.39zM1336.34 402.89L1401.29 440.39L1401.29 515.39L1336.34 552.89L1271.38 515.39L1271.38 440.39zM1401.29 740.39L1466.24 777.89L1466.24 852.89L1401.29 890.39L1336.34 852.89L1336.34 777.89zM1401.29 965.39L1466.24 1002.89L1466.24 1077.89L1401.29 1115.39L1336.34 1077.89L1336.34 1002.89zM1531.2 740.39L1596.15 777.89L1596.15 852.89L1531.2 890.39L1466.24 852.89L1466.24 777.89zM1661.1 965.39L1726.06 1002.89L1726.06 1077.89L1661.1 1115.39L1596.15 1077.89L1596.15 1002.89zM1596.15 1077.89L1661.1 1115.39L1661.1 1190.39L1596.15 1227.89L1531.2 1190.39L1531.2 1115.39zM1791.01 290.39L1855.96 327.89L1855.96 402.89L1791.01 440.39L1726.06 402.89L1726.06 327.89zM1791.01 740.39L1855.96 777.89L1855.96 852.89L1791.01 890.39L1726.06 852.89L1726.06 777.89zM1726.06 852.89L1791.01 890.39L1791.01 965.39L1726.06 1002.89L1661.1 965.39L1661.1 890.39zM1855.96 177.89L1920.92 215.39L1920.92 290.39L1855.96 327.89L1791.01 290.39L1791.01 215.39zM1855.96 402.89L1920.92 440.39L1920.92 515.39L1855.96 552.89L1791.01 515.39L1791.01 440.39zM1855.96 627.89L1920.92 665.39L1920.92 740.39L1855.96 777.89L1791.01 740.39L1791.01 665.39zM1855.96 852.89L1920.92 890.39L1920.92 965.39L1855.96 1002.89L1791.01 965.39L1791.01 890.39z" stroke="rgba(7, 46, 87, 1)" stroke-width="2"></path><path d="M29.76 -47.11 a7.5 7.5 0 1 0 15 0 a7.5 7.5 0 1 0 -15 0zM94.71 -9.61 a7.5 7.5 0 1 0 15 0 a7.5 7.5 0 1 0 -15 0zM94.71 65.39 a7.5 7.5 0 1 0 15 0 a7.5 7.5 0 1 0 -15 0zM29.76 102.89 a7.5 7.5 0 1 0 15 0 a7.5 7.5 0 1 0 -15 0zM-35.19 65.39 a7.5 7.5 0 1 0 15 0 a7.5 7.5 0 1 0 -15 0zM-35.19 -9.61 a7.5 7.5 0 1 0 15 0 a7.5 7.5 0 1 0 -15 0zM159.67 102.89 a7.5 7.5 0 1 0 15 0 a7.5 7.5 0 1 0 -15 0zM159.67 177.89 a7.5 7.5 0 1 0 15 0 a7.5 7.5 0 1 0 -15 0zM94.71 215.39 a7.5 7.5 0 1 0 15 0 a7.5 7.5 0 1 0 -15 0zM29.76 177.89 a7.5 7.5 0 1 0 15 0 a7.5 7.5 0 1 0 -15 0zM94.71 515.39 a7.5 7.5 0 1 0 15 0 a7.5 7.5 0 1 0 -15 0zM159.67 552.89 a7.5 7.5 0 1 0 15 0 a7.5 7.5 0 1 0 -15 0zM159.67 627.89 a7.5 7.5 0 1 0 15 0 a7.5 7.5 0 1 0 -15 0zM94.71 665.39 a7.5 7.5 0 1 0 15 0 a7.5 7.5 0 1 0 -15 0zM29.76 627.89 a7.5 7.5 0 1 0 15 0 a7.5 7.5 0 1 0 -15 0zM29.76 552.89 a7.5 7.5 0 1 0 15 0 a7.5 7.5 0 1 0 -15 0zM94.71 740.39 a7.5 7.5 0 1 0 15 0 a7.5 7.5 0 1 0 -15 0zM29.76 777.89 a7.5 7.5 0 1 0 15 0 a7.5 7.5 0 1 0 -15 0zM-35.19 740.39 a7.5 7.5 0 1 0 15 0 a7.5 7.5 0 1 0 -15 0zM-35.19 665.39 a7.5 7.5 0 1 0 15 0 a7.5 7.5 0 1 0 -15 0zM159.67 777.89 a7.5 7.5 0 1 0 15 0 a7.5 7.5 0 1 0 -15 0zM159.67 852.89 a7.5 7.5 0 1 0 15 0 a7.5 7.5 0 1 0 -15 0zM94.71 890.39 a7.5 7.5 0 1 0 15 0 a7.5 7.5 0 1 0 -15 0zM29.76 852.89 a7.5 7.5 0 1 0 15 0 a7.5 7.5 0 1 0 -15 0zM29.76 1077.89 a7.5 7.5 0 1 0 15 0 a7.5 7.5 0 1 0 -15 0zM94.71 1115.39 a7.5 7.5 0 1 0 15 0 a7.5 7.5 0 1 0 -15 0zM94.71 1190.39 a7.5 7.5 0 1 0 15 0 a7.5 7.5 0 1 0 -15 0zM29.76 1227.89 a7.5 7.5 0 1 0 15 0 a7.5 7.5 0 1 0 -15 0zM-35.19 1190.39 a7.5 7.5 0 1 0 15 0 a7.5 7.5 0 1 0 -15 0zM-35.19 1115.39 a7.5 7.5 0 1 0 15 0 a7.5 7.5 0 1 0 -15 0zM224.62 215.39 a7.5 7.5 0 1 0 15 0 a7.5 7.5 0 1 0 -15 0zM224.62 290.39 a7.5 7.5 0 1 0 15 0 a7.5 7.5 0 1 0 -15 0zM159.67 327.89 a7.5 7.5 0 1 0 15 0 a7.5 7.5 0 1 0 -15 0zM94.71 290.39 a7.5 7.5 0 1 0 15 0 a7.5 7.5 0 1 0 -15 0zM224.62 515.39 a7.5 7.5 0 1 0 15 0 a7.5 7.5 0 1 0 -15 0zM289.57 552.89 a7.5 7.5 0 1 0 15 0 a7.5 7.5 0 1 0 -15 0zM289.57 627.89 a7.5 7.5 0 1 0 15 0 a7.5 7.5 0 1 0 -15 0zM224.62 665.39 a7.5 7.5 0 1 0 15 0 a7.5 7.5 0 1 0 -15 0zM159.67 1077.89 a7.5 7.5 0 1 0 15 0 a7.5 7.5 0 1 0 -15 0zM224.62 1115.39 a7.5 7.5 0 1 0 15 0 a7.5 7.5 0 1 0 -15 0zM224.62 1190.39 a7.5 7.5 0 1 0 15 0 a7.5 7.5 0 1 0 -15 0zM159.67 1227.89 a7.5 7.5 0 1 0 15 0 a7.5 7.5 0 1 0 -15 0zM289.57 -47.11 a7.5 7.5 0 1 0 15 0 a7.5 7.5 0 1 0 -15 0zM354.53 -9.61 a7.5 7.5 0 1 0 15 0 a7.5 7.5 0 1 0 -15 0zM354.53 65.39 a7.5 7.5 0 1 0 15 0 a7.5 7.5 0 1 0 -15 0zM289.57 102.89 a7.5 7.5 0 1 0 15 0 a7.5 7.5 0 1 0 -15 0zM224.62 65.39 a7.5 7.5 0 1 0 15 0 a7.5 7.5 0 1 0 -15 0zM224.62 -9.61 a7.5 7.5 0 1 0 15 0 a7.5 7.5 0 1 0 -15 0zM419.48 102.89 a7.5 7.5 0 1 0 15 0 a7.5 7.5 0 1 0 -15 0zM419.48 177.89 a7.5 7.5 0 1 0 15 0 a7.5 7.5 0 1 0 -15 0zM354.53 215.39 a7.5 7.5 0 1 0 15 0 a7.5 7.5 0 1 0 -15 0zM289.57 177.89 a7.5 7.5 0 1 0 15 0 a7.5 7.5 0 1 0 -15 0zM354.53 290.39 a7.5 7.5 0 1 0 15 0 a7.5 7.5 0 1 0 -15 0zM289.57 327.89 a7.5 7.5 0 1 0 15 0 a7.5 7.5 0 1 0 -15 0zM354.53 515.39 a7.5 7.5 0 1 0 15 0 a7.5 7.5 0 1 0 -15 0zM419.48 552.89 a7.5 7.5 0 1 0 15 0 a7.5 7.5 0 1 0 -15 0zM419.48 627.89 a7.5 7.5 0 1 0 15 0 a7.5 7.5 0 1 0 -15 0zM354.53 665.39 a7.5 7.5 0 1 0 15 0 a7.5 7.5 0 1 0 -15 0zM484.44 65.39 a7.5 7.5 0 1 0 15 0 a7.5 7.5 0 1 0 -15 0zM549.39 102.89 a7.5 7.5 0 1 0 15 0 a7.5 7.5 0 1 0 -15 0zM549.39 177.89 a7.5 7.5 0 1 0 15 0 a7.5 7.5 0 1 0 -15 0zM484.44 215.39 a7.5 7.5 0 1 0 15 0 a7.5 7.5 0 1 0 -15 0zM484.44 290.39 a7.5 7.5 0 1 0 15 0 a7.5 7.5 0 1 0 -15 0zM419.48 327.89 a7.5 7.5 0 1 0 15 0 a7.5 7.5 0 1 0 -15 0zM549.39 327.89 a7.5 7.5 0 1 0 15 0 a7.5 7.5 0 1 0 -15 0zM549.39 402.89 a7.5 7.5 0 1 0 15 0 a7.5 7.5 0 1 0 -15 0zM484.44 440.39 a7.5 7.5 0 1 0 15 0 a7.5 7.5 0 1 0 -15 0zM419.48 402.89 a7.5 7.5 0 1 0 15 0 a7.5 7.5 0 1 0 -15 0zM484.44 665.39 a7.5 7.5 0 1 0 15 0 a7.5 7.5 0 1 0 -15 0zM484.44 740.39 a7.5 7.5 0 1 0 15 0 a7.5 7.5 0 1 0 -15 0zM419.48 777.89 a7.5 7.5 0 1 0 15 0 a7.5 7.5 0 1 0 -15 0zM354.53 740.39 a7.5 7.5 0 1 0 15 0 a7.5 7.5 0 1 0 -15 0zM419.48 852.89 a7.5 7.5 0 1 0 15 0 a7.5 7.5 0 1 0 -15 0zM484.44 890.39 a7.5 7.5 0 1 0 15 0 a7.5 7.5 0 1 0 -15 0zM484.44 965.39 a7.5 7.5 0 1 0 15 0 a7.5 7.5 0 1 0 -15 0zM419.48 1002.89 a7.5 7.5 0 1 0 15 0 a7.5 7.5 0 1 0 -15 0zM354.53 965.39 a7.5 7.5 0 1 0 15 0 a7.5 7.5 0 1 0 -15 0zM354.53 890.39 a7.5 7.5 0 1 0 15 0 a7.5 7.5 0 1 0 -15 0zM614.34 515.39 a7.5 7.5 0 1 0 15 0 a7.5 7.5 0 1 0 -15 0zM679.3 552.89 a7.5 7.5 0 1 0 15 0 a7.5 7.5 0 1 0 -15 0zM679.3 627.89 a7.5 7.5 0 1 0 15 0 a7.5 7.5 0 1 0 -15 0zM614.34 665.39 a7.5 7.5 0 1 0 15 0 a7.5 7.5 0 1 0 -15 0zM549.39 627.89 a7.5 7.5 0 1 0 15 0 a7.5 7.5 0 1 0 -15 0zM549.39 552.89 a7.5 7.5 0 1 0 15 0 a7.5 7.5 0 1 0 -15 0zM614.34 740.39 a7.5 7.5 0 1 0 15 0 a7.5 7.5 0 1 0 -15 0zM549.39 777.89 a7.5 7.5 0 1 0 15 0 a7.5 7.5 0 1 0 -15 0zM679.3 777.89 a7.5 7.5 0 1 0 15 0 a7.5 7.5 0 1 0 -15 0zM679.3 852.89 a7.5 7.5 0 1 0 15 0 a7.5 7.5 0 1 0 -15 0zM614.34 890.39 a7.5 7.5 0 1 0 15 0 a7.5 7.5 0 1 0 -15 0zM549.39 852.89 a7.5 7.5 0 1 0 15 0 a7.5 7.5 0 1 0 -15 0zM614.34 965.39 a7.5 7.5 0 1 0 15 0 a7.5 7.5 0 1 0 -15 0zM549.39 1002.89 a7.5 7.5 0 1 0 15 0 a7.5 7.5 0 1 0 -15 0zM679.3 1002.89 a7.5 7.5 0 1 0 15 0 a7.5 7.5 0 1 0 -15 0zM679.3 1077.89 a7.5 7.5 0 1 0 15 0 a7.5 7.5 0 1 0 -15 0zM614.34 1115.39 a7.5 7.5 0 1 0 15 0 a7.5 7.5 0 1 0 -15 0zM549.39 1077.89 a7.5 7.5 0 1 0 15 0 a7.5 7.5 0 1 0 -15 0zM679.3 -47.11 a7.5 7.5 0 1 0 15 0 a7.5 7.5 0 1 0 -15 0zM744.25 -9.61 a7.5 7.5 0 1 0 15 0 a7.5 7.5 0 1 0 -15 0zM744.25 65.39 a7.5 7.5 0 1 0 15 0 a7.5 7.5 0 1 0 -15 0zM679.3 102.89 a7.5 7.5 0 1 0 15 0 a7.5 7.5 0 1 0 -15 0zM614.34 65.39 a7.5 7.5 0 1 0 15 0 a7.5 7.5 0 1 0 -15 0zM614.34 -9.61 a7.5 7.5 0 1 0 15 0 a7.5 7.5 0 1 0 -15 0zM679.3 177.89 a7.5 7.5 0 1 0 15 0 a7.5 7.5 0 1 0 -15 0zM744.25 215.39 a7.5 7.5 0 1 0 15 0 a7.5 7.5 0 1 0 -15 0zM744.25 290.39 a7.5 7.5 0 1 0 15 0 a7.5 7.5 0 1 0 -15 0zM679.3 327.89 a7.5 7.5 0 1 0 15 0 a7.5 7.5 0 1 0 -15 0zM614.34 290.39 a7.5 7.5 0 1 0 15 0 a7.5 7.5 0 1 0 -15 0zM614.34 215.39 a7.5 7.5 0 1 0 15 0 a7.5 7.5 0 1 0 -15 0zM744.25 665.39 a7.5 7.5 0 1 0 15 0 a7.5 7.5 0 1 0 -15 0zM744.25 740.39 a7.5 7.5 0 1 0 15 0 a7.5 7.5 0 1 0 -15 0zM744.25 965.39 a7.5 7.5 0 1 0 15 0 a7.5 7.5 0 1 0 -15 0zM809.21 1002.89 a7.5 7.5 0 1 0 15 0 a7.5 7.5 0 1 0 -15 0zM809.21 1077.89 a7.5 7.5 0 1 0 15 0 a7.5 7.5 0 1 0 -15 0zM744.25 1115.39 a7.5 7.5 0 1 0 15 0 a7.5 7.5 0 1 0 -15 0zM809.2 -47.11 a7.5 7.5 0 1 0 15 0 a7.5 7.5 0 1 0 -15 0zM874.16 -9.61 a7.5 7.5 0 1 0 15 0 a7.5 7.5 0 1 0 -15 0zM874.16 65.39 a7.5 7.5 0 1 0 15 0 a7.5 7.5 0 1 0 -15 0zM809.2 102.89 a7.5 7.5 0 1 0 15 0 a7.5 7.5 0 1 0 -15 0zM939.11 102.89 a7.5 7.5 0 1 0 15 0 a7.5 7.5 0 1 0 -15 0zM939.11 177.89 a7.5 7.5 0 1 0 15 0 a7.5 7.5 0 1 0 -15 0zM874.16 215.39 a7.5 7.5 0 1 0 15 0 a7.5 7.5 0 1 0 -15 0zM809.2 177.89 a7.5 7.5 0 1 0 15 0 a7.5 7.5 0 1 0 -15 0zM874.16 290.39 a7.5 7.5 0 1 0 15 0 a7.5 7.5 0 1 0 -15 0zM809.2 327.89 a7.5 7.5 0 1 0 15 0 a7.5 7.5 0 1 0 -15 0zM874.16 515.39 a7.5 7.5 0 1 0 15 0 a7.5 7.5 0 1 0 -15 0zM939.11 552.89 a7.5 7.5 0 1 0 15 0 a7.5 7.5 0 1 0 -15 0zM939.11 627.89 a7.5 7.5 0 1 0 15 0 a7.5 7.5 0 1 0 -15 0zM874.16 665.39 a7.5 7.5 0 1 0 15 0 a7.5 7.5 0 1 0 -15 0zM809.2 627.89 a7.5 7.5 0 1 0 15 0 a7.5 7.5 0 1 0 -15 0zM809.2 552.89 a7.5 7.5 0 1 0 15 0 a7.5 7.5 0 1 0 -15 0zM874.16 740.39 a7.5 7.5 0 1 0 15 0 a7.5 7.5 0 1 0 -15 0zM809.2 777.89 a7.5 7.5 0 1 0 15 0 a7.5 7.5 0 1 0 -15 0zM1004.07 290.39 a7.5 7.5 0 1 0 15 0 a7.5 7.5 0 1 0 -15 0zM1069.02 327.89 a7.5 7.5 0 1 0 15 0 a7.5 7.5 0 1 0 -15 0zM1069.02 402.89 a7.5 7.5 0 1 0 15 0 a7.5 7.5 0 1 0 -15 0zM1004.07 440.39 a7.5 7.5 0 1 0 15 0 a7.5 7.5 0 1 0 -15 0zM939.11 402.89 a7.5 7.5 0 1 0 15 0 a7.5 7.5 0 1 0 -15 0zM939.11 327.89 a7.5 7.5 0 1 0 15 0 a7.5 7.5 0 1 0 -15 0zM1004.07 740.39 a7.5 7.5 0 1 0 15 0 a7.5 7.5 0 1 0 -15 0zM1069.02 777.89 a7.5 7.5 0 1 0 15 0 a7.5 7.5 0 1 0 -15 0zM1069.02 852.89 a7.5 7.5 0 1 0 15 0 a7.5 7.5 0 1 0 -15 0zM1004.07 890.39 a7.5 7.5 0 1 0 15 0 a7.5 7.5 0 1 0 -15 0zM939.11 852.89 a7.5 7.5 0 1 0 15 0 a7.5 7.5 0 1 0 -15 0zM939.11 777.89 a7.5 7.5 0 1 0 15 0 a7.5 7.5 0 1 0 -15 0zM1069.02 177.89 a7.5 7.5 0 1 0 15 0 a7.5 7.5 0 1 0 -15 0zM1133.97 215.39 a7.5 7.5 0 1 0 15 0 a7.5 7.5 0 1 0 -15 0zM1133.97 290.39 a7.5 7.5 0 1 0 15 0 a7.5 7.5 0 1 0 -15 0zM1004.07 215.39 a7.5 7.5 0 1 0 15 0 a7.5 7.5 0 1 0 -15 0zM1133.97 515.39 a7.5 7.5 0 1 0 15 0 a7.5 7.5 0 1 0 -15 0zM1198.93 552.89 a7.5 7.5 0 1 0 15 0 a7.5 7.5 0 1 0 -15 0zM1198.93 627.89 a7.5 7.5 0 1 0 15 0 a7.5 7.5 0 1 0 -15 0zM1133.97 665.39 a7.5 7.5 0 1 0 15 0 a7.5 7.5 0 1 0 -15 0zM1069.02 627.89 a7.5 7.5 0 1 0 15 0 a7.5 7.5 0 1 0 -15 0zM1069.02 552.89 a7.5 7.5 0 1 0 15 0 a7.5 7.5 0 1 0 -15 0zM1133.97 965.39 a7.5 7.5 0 1 0 15 0 a7.5 7.5 0 1 0 -15 0zM1198.93 1002.89 a7.5 7.5 0 1 0 15 0 a7.5 7.5 0 1 0 -15 0zM1198.93 1077.89 a7.5 7.5 0 1 0 15 0 a7.5 7.5 0 1 0 -15 0zM1133.97 1115.39 a7.5 7.5 0 1 0 15 0 a7.5 7.5 0 1 0 -15 0zM1069.02 1077.89 a7.5 7.5 0 1 0 15 0 a7.5 7.5 0 1 0 -15 0zM1069.02 1002.89 a7.5 7.5 0 1 0 15 0 a7.5 7.5 0 1 0 -15 0zM1263.88 290.39 a7.5 7.5 0 1 0 15 0 a7.5 7.5 0 1 0 -15 0zM1328.83 327.89 a7.5 7.5 0 1 0 15 0 a7.5 7.5 0 1 0 -15 0zM1328.83 402.89 a7.5 7.5 0 1 0 15 0 a7.5 7.5 0 1 0 -15 0zM1263.88 440.39 a7.5 7.5 0 1 0 15 0 a7.5 7.5 0 1 0 -15 0zM1198.93 402.89 a7.5 7.5 0 1 0 15 0 a7.5 7.5 0 1 0 -15 0zM1198.93 327.89 a7.5 7.5 0 1 0 15 0 a7.5 7.5 0 1 0 -15 0zM1263.88 515.39 a7.5 7.5 0 1 0 15 0 a7.5 7.5 0 1 0 -15 0zM1133.97 440.39 a7.5 7.5 0 1 0 15 0 a7.5 7.5 0 1 0 -15 0zM1328.84 -47.11 a7.5 7.5 0 1 0 15 0 a7.5 7.5 0 1 0 -15 0zM1393.79 -9.61 a7.5 7.5 0 1 0 15 0 a7.5 7.5 0 1 0 -15 0zM1393.79 65.39 a7.5 7.5 0 1 0 15 0 a7.5 7.5 0 1 0 -15 0zM1328.84 102.89 a7.5 7.5 0 1 0 15 0 a7.5 7.5 0 1 0 -15 0zM1263.88 65.39 a7.5 7.5 0 1 0 15 0 a7.5 7.5 0 1 0 -15 0zM1263.88 -9.61 a7.5 7.5 0 1 0 15 0 a7.5 7.5 0 1 0 -15 0zM1328.84 177.89 a7.5 7.5 0 1 0 15 0 a7.5 7.5 0 1 0 -15 0zM1393.79 215.39 a7.5 7.5 0 1 0 15 0 a7.5 7.5 0 1 0 -15 0zM1393.79 290.39 a7.5 7.5 0 1 0 15 0 a7.5 7.5 0 1 0 -15 0zM1328.84 327.89 a7.5 7.5 0 1 0 15 0 a7.5 7.5 0 1 0 -15 0zM1263.88 215.39 a7.5 7.5 0 1 0 15 0 a7.5 7.5 0 1 0 -15 0zM1328.84 402.89 a7.5 7.5 0 1 0 15 0 a7.5 7.5 0 1 0 -15 0zM1393.79 440.39 a7.5 7.5 0 1 0 15 0 a7.5 7.5 0 1 0 -15 0zM1393.79 515.39 a7.5 7.5 0 1 0 15 0 a7.5 7.5 0 1 0 -15 0zM1328.84 552.89 a7.5 7.5 0 1 0 15 0 a7.5 7.5 0 1 0 -15 0zM1393.79 740.39 a7.5 7.5 0 1 0 15 0 a7.5 7.5 0 1 0 -15 0zM1458.74 777.89 a7.5 7.5 0 1 0 15 0 a7.5 7.5 0 1 0 -15 0zM1458.74 852.89 a7.5 7.5 0 1 0 15 0 a7.5 7.5 0 1 0 -15 0zM1393.79 890.39 a7.5 7.5 0 1 0 15 0 a7.5 7.5 0 1 0 -15 0zM1328.84 852.89 a7.5 7.5 0 1 0 15 0 a7.5 7.5 0 1 0 -15 0zM1328.84 777.89 a7.5 7.5 0 1 0 15 0 a7.5 7.5 0 1 0 -15 0zM1393.79 965.39 a7.5 7.5 0 1 0 15 0 a7.5 7.5 0 1 0 -15 0zM1458.74 1002.89 a7.5 7.5 0 1 0 15 0 a7.5 7.5 0 1 0 -15 0zM1458.74 1077.89 a7.5 7.5 0 1 0 15 0 a7.5 7.5 0 1 0 -15 0zM1393.79 1115.39 a7.5 7.5 0 1 0 15 0 a7.5 7.5 0 1 0 -15 0zM1328.84 1077.89 a7.5 7.5 0 1 0 15 0 a7.5 7.5 0 1 0 -15 0zM1328.84 1002.89 a7.5 7.5 0 1 0 15 0 a7.5 7.5 0 1 0 -15 0zM1523.7 740.39 a7.5 7.5 0 1 0 15 0 a7.5 7.5 0 1 0 -15 0zM1588.65 777.89 a7.5 7.5 0 1 0 15 0 a7.5 7.5 0 1 0 -15 0zM1588.65 852.89 a7.5 7.5 0 1 0 15 0 a7.5 7.5 0 1 0 -15 0zM1523.7 890.39 a7.5 7.5 0 1 0 15 0 a7.5 7.5 0 1 0 -15 0zM1653.6 965.39 a7.5 7.5 0 1 0 15 0 a7.5 7.5 0 1 0 -15 0zM1718.56 1002.89 a7.5 7.5 0 1 0 15 0 a7.5 7.5 0 1 0 -15 0zM1718.56 1077.89 a7.5 7.5 0 1 0 15 0 a7.5 7.5 0 1 0 -15 0zM1653.6 1115.39 a7.5 7.5 0 1 0 15 0 a7.5 7.5 0 1 0 -15 0zM1588.65 1077.89 a7.5 7.5 0 1 0 15 0 a7.5 7.5 0 1 0 -15 0zM1588.65 1002.89 a7.5 7.5 0 1 0 15 0 a7.5 7.5 0 1 0 -15 0zM1653.6 1190.39 a7.5 7.5 0 1 0 15 0 a7.5 7.5 0 1 0 -15 0zM1588.65 1227.89 a7.5 7.5 0 1 0 15 0 a7.5 7.5 0 1 0 -15 0zM1523.7 1190.39 a7.5 7.5 0 1 0 15 0 a7.5 7.5 0 1 0 -15 0zM1523.7 1115.39 a7.5 7.5 0 1 0 15 0 a7.5 7.5 0 1 0 -15 0zM1783.51 290.39 a7.5 7.5 0 1 0 15 0 a7.5 7.5 0 1 0 -15 0zM1848.46 327.89 a7.5 7.5 0 1 0 15 0 a7.5 7.5 0 1 0 -15 0zM1848.46 402.89 a7.5 7.5 0 1 0 15 0 a7.5 7.5 0 1 0 -15 0zM1783.51 440.39 a7.5 7.5 0 1 0 15 0 a7.5 7.5 0 1 0 -15 0zM1718.56 402.89 a7.5 7.5 0 1 0 15 0 a7.5 7.5 0 1 0 -15 0zM1718.56 327.89 a7.5 7.5 0 1 0 15 0 a7.5 7.5 0 1 0 -15 0zM1783.51 740.39 a7.5 7.5 0 1 0 15 0 a7.5 7.5 0 1 0 -15 0zM1848.46 777.89 a7.5 7.5 0 1 0 15 0 a7.5 7.5 0 1 0 -15 0zM1848.46 852.89 a7.5 7.5 0 1 0 15 0 a7.5 7.5 0 1 0 -15 0zM1783.51 890.39 a7.5 7.5 0 1 0 15 0 a7.5 7.5 0 1 0 -15 0zM1718.56 852.89 a7.5 7.5 0 1 0 15 0 a7.5 7.5 0 1 0 -15 0zM1718.56 777.89 a7.5 7.5 0 1 0 15 0 a7.5 7.5 0 1 0 -15 0zM1783.51 965.39 a7.5 7.5 0 1 0 15 0 a7.5 7.5 0 1 0 -15 0zM1653.6 890.39 a7.5 7.5 0 1 0 15 0 a7.5 7.5 0 1 0 -15 0zM1848.46 177.89 a7.5 7.5 0 1 0 15 0 a7.5 7.5 0 1 0 -15 0zM1913.42 215.39 a7.5 7.5 0 1 0 15 0 a7.5 7.5 0 1 0 -15 0zM1913.42 290.39 a7.5 7.5 0 1 0 15 0 a7.5 7.5 0 1 0 -15 0zM1783.51 215.39 a7.5 7.5 0 1 0 15 0 a7.5 7.5 0 1 0 -15 0zM1913.42 440.39 a7.5 7.5 0 1 0 15 0 a7.5 7.5 0 1 0 -15 0zM1913.42 515.39 a7.5 7.5 0 1 0 15 0 a7.5 7.5 0 1 0 -15 0zM1848.46 552.89 a7.5 7.5 0 1 0 15 0 a7.5 7.5 0 1 0 -15 0zM1783.51 515.39 a7.5 7.5 0 1 0 15 0 a7.5 7.5 0 1 0 -15 0zM1848.46 627.89 a7.5 7.5 0 1 0 15 0 a7.5 7.5 0 1 0 -15 0zM1913.42 665.39 a7.5 7.5 0 1 0 15 0 a7.5 7.5 0 1 0 -15 0zM1913.42 740.39 a7.5 7.5 0 1 0 15 0 a7.5 7.5 0 1 0 -15 0zM1783.51 665.39 a7.5 7.5 0 1 0 15 0 a7.5 7.5 0 1 0 -15 0zM1913.42 890.39 a7.5 7.5 0 1 0 15 0 a7.5 7.5 0 1 0 -15 0zM1913.42 965.39 a7.5 7.5 0 1 0 15 0 a7.5 7.5 0 1 0 -15 0zM1848.46 1002.89 a7.5 7.5 0 1 0 15 0 a7.5 7.5 0 1 0 -15 0z" fill="rgba(7, 46, 87, 1)"></path><path d="M91.85 44.22L135.16 69.22L135.16 119.22L91.85 144.22L48.55 119.22L48.55 69.22zM48.55 119.22L91.85 144.22L91.85 194.22L48.55 219.22L5.25 194.22L5.25 144.22zM91.85 344.22L135.16 369.22L135.16 419.22L91.85 444.22L48.55 419.22L48.55 369.22zM91.85 494.22L135.16 519.22L135.16 569.22L91.85 594.22L48.55 569.22L48.55 519.22zM91.85 644.22L135.16 669.22L135.16 719.22L91.85 744.22L48.55 719.22L48.55 669.22zM48.55 719.22L91.85 744.22L91.85 794.22L48.55 819.22L5.25 794.22L5.25 744.22zM48.55 869.22L91.85 894.22L91.85 944.22L48.55 969.22L5.25 944.22L5.25 894.22zM48.55 1019.22L91.85 1044.22L91.85 1094.22L48.55 1119.22L5.25 1094.22L5.25 1044.22zM135.16 -30.78L178.46 -5.78L178.46 44.22L135.16 69.22L91.85 44.22L91.85 -5.78zM178.46 44.22L221.76 69.22L221.76 119.22L178.46 144.22L135.16 119.22L135.16 69.22zM178.46 194.22L221.76 219.22L221.76 269.22L178.46 294.22L135.16 269.22L135.16 219.22zM178.46 344.22L221.76 369.22L221.76 419.22L178.46 444.22L135.16 419.22L135.16 369.22zM135.16 419.22L178.46 444.22L178.46 494.22L135.16 519.22L91.85 494.22L91.85 444.22zM135.16 719.22L178.46 744.22L178.46 794.22L135.16 819.22L91.85 794.22L91.85 744.22zM135.16 869.22L178.46 894.22L178.46 944.22L135.16 969.22L91.85 944.22L91.85 894.22zM221.76 -30.78L265.06 -5.78L265.06 44.22L221.76 69.22L178.46 44.22L178.46 -5.78zM221.76 119.22L265.06 144.22L265.06 194.22L221.76 219.22L178.46 194.22L178.46 144.22zM265.06 344.22L308.37 369.22L308.37 419.22L265.06 444.22L221.76 419.22L221.76 369.22zM265.06 494.22L308.37 519.22L308.37 569.22L265.06 594.22L221.76 569.22L221.76 519.22zM265.06 794.22L308.37 819.22L308.37 869.22L265.06 894.22L221.76 869.22L221.76 819.22zM265.06 944.22L308.37 969.22L308.37 1019.22L265.06 1044.22L221.76 1019.22L221.76 969.22zM221.76 1019.22L265.06 1044.22L265.06 1094.22L221.76 1119.22L178.46 1094.22L178.46 1044.22zM351.67 44.22L394.97 69.22L394.97 119.22L351.67 144.22L308.37 119.22L308.37 69.22zM351.67 194.22L394.97 219.22L394.97 269.22L351.67 294.22L308.37 269.22L308.37 219.22zM308.37 269.22L351.67 294.22L351.67 344.22L308.37 369.22L265.06 344.22L265.06 294.22zM308.37 719.22L351.67 744.22L351.67 794.22L308.37 819.22L265.06 794.22L265.06 744.22zM308.37 869.22L351.67 894.22L351.67 944.22L308.37 969.22L265.06 944.22L265.06 894.22zM308.37 1019.22L351.67 1044.22L351.67 1094.22L308.37 1119.22L265.06 1094.22L265.06 1044.22zM394.97 -30.78L438.27 -5.78L438.27 44.22L394.97 69.22L351.67 44.22L351.67 -5.78zM394.97 269.22L438.27 294.22L438.27 344.22L394.97 369.22L351.67 344.22L351.67 294.22zM438.27 344.22L481.58 369.22L481.58 419.22L438.27 444.22L394.97 419.22L394.97 369.22zM394.97 419.22L438.27 444.22L438.27 494.22L394.97 519.22L351.67 494.22L351.67 444.22zM394.97 569.22L438.27 594.22L438.27 644.22L394.97 669.22L351.67 644.22L351.67 594.22zM394.97 719.22L438.27 744.22L438.27 794.22L394.97 819.22L351.67 794.22L351.67 744.22zM394.97 869.22L438.27 894.22L438.27 944.22L394.97 969.22L351.67 944.22L351.67 894.22zM438.27 944.22L481.58 969.22L481.58 1019.22L438.27 1044.22L394.97 1019.22L394.97 969.22zM524.88 44.22L568.18 69.22L568.18 119.22L524.88 144.22L481.58 119.22L481.58 69.22zM524.88 194.22L568.18 219.22L568.18 269.22L524.88 294.22L481.58 269.22L481.58 219.22zM481.58 569.22L524.88 594.22L524.88 644.22L481.58 669.22L438.27 644.22L438.27 594.22zM524.88 644.22L568.18 669.22L568.18 719.22L524.88 744.22L481.58 719.22L481.58 669.22zM524.88 794.22L568.18 819.22L568.18 869.22L524.88 894.22L481.58 869.22L481.58 819.22zM524.88 944.22L568.18 969.22L568.18 1019.22L524.88 1044.22L481.58 1019.22L481.58 969.22zM568.18 -30.78L611.48 -5.78L611.48 44.22L568.18 69.22L524.88 44.22L524.88 -5.78zM568.18 419.22L611.48 444.22L611.48 494.22L568.18 519.22L524.88 494.22L524.88 444.22zM611.48 644.22L654.78 669.22L654.78 719.22L611.48 744.22L568.18 719.22L568.18 669.22zM611.48 794.22L654.78 819.22L654.78 869.22L611.48 894.22L568.18 869.22L568.18 819.22zM568.18 1019.22L611.48 1044.22L611.48 1094.22L568.18 1119.22L524.88 1094.22L524.88 1044.22zM654.78 -30.78L698.09 -5.78L698.09 44.22L654.78 69.22L611.48 44.22L611.48 -5.78zM698.09 194.22L741.39 219.22L741.39 269.22L698.09 294.22L654.78 269.22L654.78 219.22zM698.09 344.22L741.39 369.22L741.39 419.22L698.09 444.22L654.78 419.22L654.78 369.22zM654.78 419.22L698.09 444.22L698.09 494.22L654.78 519.22L611.48 494.22L611.48 444.22zM698.09 494.22L741.39 519.22L741.39 569.22L698.09 594.22L654.78 569.22L654.78 519.22zM698.09 944.22L741.39 969.22L741.39 1019.22L698.09 1044.22L654.78 1019.22L654.78 969.22zM741.39 -30.78L784.69 -5.78L784.69 44.22L741.39 69.22L698.09 44.22L698.09 -5.78zM784.69 194.22L828 219.22L828 269.22L784.69 294.22L741.39 269.22L741.39 219.22zM741.39 269.22L784.69 294.22L784.69 344.22L741.39 369.22L698.09 344.22L698.09 294.22zM741.39 419.22L784.69 444.22L784.69 494.22L741.39 519.22L698.09 494.22L698.09 444.22zM741.39 719.22L784.69 744.22L784.69 794.22L741.39 819.22L698.09 794.22L698.09 744.22zM741.39 869.22L784.69 894.22L784.69 944.22L741.39 969.22L698.09 944.22L698.09 894.22zM741.39 1019.22L784.69 1044.22L784.69 1094.22L741.39 1119.22L698.09 1094.22L698.09 1044.22zM828 119.22L871.3 144.22L871.3 194.22L828 219.22L784.69 194.22L784.69 144.22zM871.3 194.22L914.6 219.22L914.6 269.22L871.3 294.22L828 269.22L828 219.22zM828 419.22L871.3 444.22L871.3 494.22L828 519.22L784.69 494.22L784.69 444.22zM828 569.22L871.3 594.22L871.3 644.22L828 669.22L784.69 644.22L784.69 594.22zM828 869.22L871.3 894.22L871.3 944.22L828 969.22L784.69 944.22L784.69 894.22zM871.3 944.22L914.6 969.22L914.6 1019.22L871.3 1044.22L828 1019.22L828 969.22zM828 1019.22L871.3 1044.22L871.3 1094.22L828 1119.22L784.69 1094.22L784.69 1044.22zM914.6 -30.78L957.9 -5.78L957.9 44.22L914.6 69.22L871.3 44.22L871.3 -5.78zM914.6 119.22L957.9 144.22L957.9 194.22L914.6 219.22L871.3 194.22L871.3 144.22zM957.9 194.22L1001.21 219.22L1001.21 269.22L957.9 294.22L914.6 269.22L914.6 219.22zM914.6 269.22L957.9 294.22L957.9 344.22L914.6 369.22L871.3 344.22L871.3 294.22zM957.9 344.22L1001.21 369.22L1001.21 419.22L957.9 444.22L914.6 419.22L914.6 369.22zM957.9 644.22L1001.21 669.22L1001.21 719.22L957.9 744.22L914.6 719.22L914.6 669.22zM957.9 794.22L1001.21 819.22L1001.21 869.22L957.9 894.22L914.6 869.22L914.6 819.22zM1044.51 44.22L1087.81 69.22L1087.81 119.22L1044.51 144.22L1001.21 119.22L1001.21 69.22zM1001.21 119.22L1044.51 144.22L1044.51 194.22L1001.21 219.22L957.9 194.22L957.9 144.22zM1044.51 194.22L1087.81 219.22L1087.81 269.22L1044.51 294.22L1001.21 269.22L1001.21 219.22zM1044.51 344.22L1087.81 369.22L1087.81 419.22L1044.51 444.22L1001.21 419.22L1001.21 369.22zM1001.21 569.22L1044.51 594.22L1044.51 644.22L1001.21 669.22L957.9 644.22L957.9 594.22zM1001.21 719.22L1044.51 744.22L1044.51 794.22L1001.21 819.22L957.9 794.22L957.9 744.22zM1001.21 869.22L1044.51 894.22L1044.51 944.22L1001.21 969.22L957.9 944.22L957.9 894.22zM1044.51 944.22L1087.81 969.22L1087.81 1019.22L1044.51 1044.22L1001.21 1019.22L1001.21 969.22zM1087.81 -30.78L1131.11 -5.78L1131.11 44.22L1087.81 69.22L1044.51 44.22L1044.51 -5.78zM1087.81 119.22L1131.11 144.22L1131.11 194.22L1087.81 219.22L1044.51 194.22L1044.51 144.22zM1131.11 194.22L1174.41 219.22L1174.41 269.22L1131.11 294.22L1087.81 269.22L1087.81 219.22zM1087.81 269.22L1131.11 294.22L1131.11 344.22L1087.81 369.22L1044.51 344.22L1044.51 294.22zM1131.11 344.22L1174.41 369.22L1174.41 419.22L1131.11 444.22L1087.81 419.22L1087.81 369.22zM1087.81 419.22L1131.11 444.22L1131.11 494.22L1087.81 519.22L1044.51 494.22L1044.51 444.22zM1131.11 644.22L1174.41 669.22L1174.41 719.22L1131.11 744.22L1087.81 719.22L1087.81 669.22zM1087.81 719.22L1131.11 744.22L1131.11 794.22L1087.81 819.22L1044.51 794.22L1044.51 744.22zM1087.81 869.22L1131.11 894.22L1131.11 944.22L1087.81 969.22L1044.51 944.22L1044.51 894.22zM1087.81 1019.22L1131.11 1044.22L1131.11 1094.22L1087.81 1119.22L1044.51 1094.22L1044.51 1044.22zM1174.41 419.22L1217.72 444.22L1217.72 494.22L1174.41 519.22L1131.11 494.22L1131.11 444.22zM1217.72 494.22L1261.02 519.22L1261.02 569.22L1217.72 594.22L1174.41 569.22L1174.41 519.22zM1174.41 569.22L1217.72 594.22L1217.72 644.22L1174.41 669.22L1131.11 644.22L1131.11 594.22zM1217.72 644.22L1261.02 669.22L1261.02 719.22L1217.72 744.22L1174.41 719.22L1174.41 669.22zM1217.72 944.22L1261.02 969.22L1261.02 1019.22L1217.72 1044.22L1174.41 1019.22L1174.41 969.22zM1304.32 344.22L1347.63 369.22L1347.63 419.22L1304.32 444.22L1261.02 419.22L1261.02 369.22zM1261.02 719.22L1304.32 744.22L1304.32 794.22L1261.02 819.22L1217.72 794.22L1217.72 744.22zM1261.02 1019.22L1304.32 1044.22L1304.32 1094.22L1261.02 1119.22L1217.72 1094.22L1217.72 1044.22zM1390.93 44.22L1434.23 69.22L1434.23 119.22L1390.93 144.22L1347.63 119.22L1347.63 69.22zM1390.93 194.22L1434.23 219.22L1434.23 269.22L1390.93 294.22L1347.63 269.22L1347.63 219.22zM1347.63 269.22L1390.93 294.22L1390.93 344.22L1347.63 369.22L1304.32 344.22L1304.32 294.22zM1347.63 419.22L1390.93 444.22L1390.93 494.22L1347.63 519.22L1304.32 494.22L1304.32 444.22zM1347.63 719.22L1390.93 744.22L1390.93 794.22L1347.63 819.22L1304.32 794.22L1304.32 744.22zM1390.93 794.22L1434.23 819.22L1434.23 869.22L1390.93 894.22L1347.63 869.22L1347.63 819.22zM1347.63 869.22L1390.93 894.22L1390.93 944.22L1347.63 969.22L1304.32 944.22L1304.32 894.22zM1434.23 -30.78L1477.53 -5.78L1477.53 44.22L1434.23 69.22L1390.93 44.22L1390.93 -5.78zM1434.23 269.22L1477.53 294.22L1477.53 344.22L1434.23 369.22L1390.93 344.22L1390.93 294.22zM1477.53 344.22L1520.84 369.22L1520.84 419.22L1477.53 444.22L1434.23 419.22L1434.23 369.22zM1434.23 419.22L1477.53 444.22L1477.53 494.22L1434.23 519.22L1390.93 494.22L1390.93 444.22zM1477.53 494.22L1520.84 519.22L1520.84 569.22L1477.53 594.22L1434.23 569.22L1434.23 519.22zM1477.53 644.22L1520.84 669.22L1520.84 719.22L1477.53 744.22L1434.23 719.22L1434.23 669.22zM1434.23 1019.22L1477.53 1044.22L1477.53 1094.22L1434.23 1119.22L1390.93 1094.22L1390.93 1044.22zM1520.84 -30.78L1564.14 -5.78L1564.14 44.22L1520.84 69.22L1477.53 44.22L1477.53 -5.78zM1520.84 119.22L1564.14 144.22L1564.14 194.22L1520.84 219.22L1477.53 194.22L1477.53 144.22zM1520.84 269.22L1564.14 294.22L1564.14 344.22L1520.84 369.22L1477.53 344.22L1477.53 294.22zM1564.14 344.22L1607.44 369.22L1607.44 419.22L1564.14 444.22L1520.84 419.22L1520.84 369.22zM1520.84 419.22L1564.14 444.22L1564.14 494.22L1520.84 519.22L1477.53 494.22L1477.53 444.22zM1564.14 644.22L1607.44 669.22L1607.44 719.22L1564.14 744.22L1520.84 719.22L1520.84 669.22zM1520.84 719.22L1564.14 744.22L1564.14 794.22L1520.84 819.22L1477.53 794.22L1477.53 744.22zM1564.14 794.22L1607.44 819.22L1607.44 869.22L1564.14 894.22L1520.84 869.22L1520.84 819.22zM1607.44 119.22L1650.74 144.22L1650.74 194.22L1607.44 219.22L1564.14 194.22L1564.14 144.22zM1650.74 494.22L1694.05 519.22L1694.05 569.22L1650.74 594.22L1607.44 569.22L1607.44 519.22zM1650.74 644.22L1694.05 669.22L1694.05 719.22L1650.74 744.22L1607.44 719.22L1607.44 669.22zM1607.44 719.22L1650.74 744.22L1650.74 794.22L1607.44 819.22L1564.14 794.22L1564.14 744.22zM1650.74 794.22L1694.05 819.22L1694.05 869.22L1650.74 894.22L1607.44 869.22L1607.44 819.22zM1607.44 869.22L1650.74 894.22L1650.74 944.22L1607.44 969.22L1564.14 944.22L1564.14 894.22zM1650.74 944.22L1694.05 969.22L1694.05 1019.22L1650.74 1044.22L1607.44 1019.22L1607.44 969.22zM1737.35 344.22L1780.65 369.22L1780.65 419.22L1737.35 444.22L1694.05 419.22L1694.05 369.22zM1737.35 494.22L1780.65 519.22L1780.65 569.22L1737.35 594.22L1694.05 569.22L1694.05 519.22zM1737.35 794.22L1780.65 819.22L1780.65 869.22L1737.35 894.22L1694.05 869.22L1694.05 819.22zM1823.95 44.22L1867.26 69.22L1867.26 119.22L1823.95 144.22L1780.65 119.22L1780.65 69.22zM1823.95 194.22L1867.26 219.22L1867.26 269.22L1823.95 294.22L1780.65 269.22L1780.65 219.22zM1780.65 269.22L1823.95 294.22L1823.95 344.22L1780.65 369.22L1737.35 344.22L1737.35 294.22zM1823.95 344.22L1867.26 369.22L1867.26 419.22L1823.95 444.22L1780.65 419.22L1780.65 369.22zM1780.65 569.22L1823.95 594.22L1823.95 644.22L1780.65 669.22L1737.35 644.22L1737.35 594.22zM1780.65 719.22L1823.95 744.22L1823.95 794.22L1780.65 819.22L1737.35 794.22L1737.35 744.22zM1823.95 794.22L1867.26 819.22L1867.26 869.22L1823.95 894.22L1780.65 869.22L1780.65 819.22zM1780.65 1019.22L1823.95 1044.22L1823.95 1094.22L1780.65 1119.22L1737.35 1094.22L1737.35 1044.22zM1867.26 119.22L1910.56 144.22L1910.56 194.22L1867.26 219.22L1823.95 194.22L1823.95 144.22zM1910.56 194.22L1953.86 219.22L1953.86 269.22L1910.56 294.22L1867.26 269.22L1867.26 219.22zM1910.56 494.22L1953.86 519.22L1953.86 569.22L1910.56 594.22L1867.26 569.22L1867.26 519.22zM1867.26 569.22L1910.56 594.22L1910.56 644.22L1867.26 669.22L1823.95 644.22L1823.95 594.22zM1910.56 794.22L1953.86 819.22L1953.86 869.22L1910.56 894.22L1867.26 869.22L1867.26 819.22zM1867.26 869.22L1910.56 894.22L1910.56 944.22L1867.26 969.22L1823.95 944.22L1823.95 894.22zM1867.26 1019.22L1910.56 1044.22L1910.56 1094.22L1867.26 1119.22L1823.95 1094.22L1823.95 1044.22zM1953.86 -30.78L1997.16 -5.78L1997.16 44.22L1953.86 69.22L1910.56 44.22L1910.56 -5.78zM1953.86 119.22L1997.16 144.22L1997.16 194.22L1953.86 219.22L1910.56 194.22L1910.56 144.22zM1997.16 194.22L2040.47 219.22L2040.47 269.22L1997.16 294.22L1953.86 269.22L1953.86 219.22zM1997.16 344.22L2040.47 369.22L2040.47 419.22L1997.16 444.22L1953.86 419.22L1953.86 369.22zM1953.86 419.22L1997.16 444.22L1997.16 494.22L1953.86 519.22L1910.56 494.22L1910.56 444.22zM1997.16 494.22L2040.47 519.22L2040.47 569.22L1997.16 594.22L1953.86 569.22L1953.86 519.22zM1953.86 569.22L1997.16 594.22L1997.16 644.22L1953.86 669.22L1910.56 644.22L1910.56 594.22zM1997.16 644.22L2040.47 669.22L2040.47 719.22L1997.16 744.22L1953.86 719.22L1953.86 669.22zM1953.86 719.22L1997.16 744.22L1997.16 794.22L1953.86 819.22L1910.56 794.22L1910.56 744.22zM1997.16 794.22L2040.47 819.22L2040.47 869.22L1997.16 894.22L1953.86 869.22L1953.86 819.22z" stroke="rgba(5, 44, 84, 0.93)" stroke-width="2"></path></g><defs><mask id="SvgjsMask1024"><rect width="1920" height="1080" fill="#ffffff"></rect></mask></defs></svg>